<?xml version="1.0" encoding="utf-8"?>
<!-- Generator: Adobe Illustrator 22.1.0, SVG Export Plug-In . SVG Version: 6.00 Build 0)  -->
<svg version="1.1" id="Layer_1" xmlns="http://www.w3.org/2000/svg" xmlns:xlink="http://www.w3.org/1999/xlink" x="0px" y="0px"
	 viewBox="0 0 468.4 538.8" style="enable-background:new 0 0 468.4 538.8;" xml:space="preserve">
<style type="text/css">
	.st0{fill:#FFFCE1;stroke:#D5CB29;stroke-width:10;stroke-linecap:round;stroke-linejoin:round;stroke-miterlimit:10;}
	.st1{fill:#4BA848;}
	.st2{fill:#3FA4AC;}
	.st3{fill:#298D45;}
	.st4{fill:#C4DA5A;}
	.st5{fill:#98CA5C;}
	.st6{fill:#B8D551;}
	.st7{fill:#D5E05D;}
	.st8{fill:#2C8541;}
	.st9{fill:#429C82;}
	.st10{fill:#41A494;}
	.st11{fill:#7ABA48;}
	.st12{fill:#4EA347;}
	.st13{fill:#389946;}
	.st14{fill:#41A68E;}
	.st15{fill:#9ACA42;}
	.st16{fill:#D9E7A4;}
	.st17{fill:#328F44;}
	.st18{fill:#3AA198;}
	.st19{fill:#76C08A;}
	.st20{fill:#2D8E45;}
	.st21{fill:#7DBE7A;}
	.st22{fill:#57AC97;}
	.st23{fill:#72B370;}
	.st24{fill:#7FBA78;}
	.st25{fill:#B8D773;}
	.st26{fill:#267D41;}
	.st27{fill:#2B8961;}
	.st28{fill:#81C043;}
	.st29{fill:#34948F;}
	.st30{fill:#82BE8B;}
	.st31{fill:#2A8040;}
	.st32{fill:#22753B;}
	.st33{fill:#2F925A;}
	.st34{fill:#3D9F70;}
	.st35{fill:#35957F;}
	.st36{fill:#429E77;}
	.st37{fill:#5EAE54;}
	.st38{fill:#83BE70;}
	.st39{fill:#72BA95;}
	.st40{fill:#66A183;}
	.st41{fill:#86B344;}
	.st42{fill:#17753C;}
	.st43{fill:#6DA15F;}
	.st44{fill:#7EB350;}
	.st45{fill:#41A348;}
	.st46{fill:#CCDE69;}
	.st47{fill:#7DBE43;}
	.st48{fill:#C2DA6C;}
	.st49{fill:#85C55F;}
	.st50{fill:#66B163;}
	.st51{fill:#2F7F3F;}
	.st52{fill:#40A36F;}
	.st53{fill:#389947;}
	.st54{fill:#3BA05D;}
	.st55{fill:#9BCB4B;}
	.st56{fill:#76B845;}
	.st57{fill:#3EA048;}
	.st58{fill:#D8695C;}
	.st59{fill:#45A36C;}
	.st60{fill:#3EA37F;}
	.st61{fill:#4AA048;}
	.st62{fill:#3CA048;}
	.st63{fill:#4FA249;}
	.st64{fill:#417B3B;}
	.st65{fill:#3F9248;}
	.st66{fill:#AEA5BA;}
	.st67{fill:#C7DA59;}
	.st68{fill:#CADE7C;}
	.st69{fill:#BE4D40;}
	.st70{fill:#EA655D;}
	.st71{fill:#D2DF5D;}
	.st72{fill:#BED652;}
	.st73{fill:#186C3A;}
	.st74{fill:#2A7440;}
	.st75{fill:#2D8642;}
	.st76{fill:#4B9A47;}
	.st77{fill:#98C64A;}
	.st78{fill:#F3E587;}
	.st79{fill:#ADA1B0;}
	.st80{fill:#3DA266;}
	.st81{fill:#47A55A;}
	.st82{fill:#85B844;}
	.st83{fill:#2B6F3F;}
	.st84{fill:#41A256;}
	.st85{fill:#79BE66;}
	.st86{fill:#316835;}
	.st87{fill:#396D34;}
	.st88{fill:#5CB247;}
	.st89{fill:#237139;}
	.st90{fill:#1C512A;}
	.st91{fill:#679646;}
	.st92{fill:#AABC6E;}
	.st93{fill:#36612E;}
	.st94{fill:#96AF80;}
	.st95{fill:#1F3F22;}
	.st96{fill:#BDC34E;}
</style>
<polygon class="st0" points="6,137.7 6,401.1 234.2,532.9 462.4,401.1 462.4,137.7 234.2,5.9 "/>
<g>
	<path class="st1" d="M344.6,219.4c0-1.9,0-3.8,0.1-5.8c0-5.5,1.6-7.5,7.1-8.9c3.1,3.6,2.8,8.5,4.5,12.6c-0.1,1-0.5,2.1,1.3,1.9
		c0.8,0.5,2.1,0.6,1.8,1.9c-0.3,1.1-1.5,1.1-2.4,1.4c-2.6,0.8-2.2,3-2.4,5c-0.3,3.6-0.5,7.1-2,10.5c-2.5,3.1-2.5,7.7-5.6,10.5
		c-1.3-0.2-2.8-0.5-3.7,0.4c-5,4.6-12.3,4.3-17.6,8.1c-1.9,1.4-3.2-0.1-4.4-1.3c-1.2-1.2-3-2.6-1.3-4.3c2.3-2.3,1.8-5,2-7.6
		c0.7-1.9,2.5-2.2,4.1-2.5c2.6-0.4,4.8-1.5,7-2.8c2-1,3.5-2.8,5.8-3.2c6.3-1.2,6.3-1.2,4.6-7.1C343.6,225.2,343.6,222.2,344.6,219.4
		z"/>
	<path class="st2" d="M317.8,206.9c4,1,7.9,1.9,11.5,4c-0.5,1.1-0.5,2.2-0.1,3.3c1.7,4.7,1.2,5.4-4.3,5.3c-4.6-0.7-9.3-0.7-13.9,0.1
		c-2.2,0.6-4.5,1-6.6,2c-2,0.2-3.1,2.8-5.5,2.1c-4.6-4.3-3.9-9.2,1-12.8C305.4,206.9,311.4,206.6,317.8,206.9z"/>
	<path class="st3" d="M290,255.2c-9.5-11.5-10.7-29.4-2.5-39.4c4.5-5.5,10.4-8.5,17.3-9.3c0.8-0.3,1.7-0.2,2.5-0.2
		c0.4,0,0.8,0.2,1.2,1c-5,1.8-9.7,4.3-13.3,8.4c-2.9,3.4-5,7.3-7.1,11.2c-3.2,5-2.3,9.9,0.6,14.6c1.7,2.7,3.3,5.4,5.4,7.8
		c1.2,1.9,2.8,3.3,4.4,4.8c1.1,1.2,2.5,1.8,3.9,2.6c2.6,1.4,3.5,3.3,1.4,5.9c-2.2,1-3.8-0.3-5.5-1.4
		C295.5,259.1,293.2,256.6,290,255.2z"/>
	<path class="st4" d="M356.9,221.4c0.6-0.1,1.3-0.2,2.1-0.3c-0.9-0.6-1.5-1-2.2-1.4c4.4-1.9,4.5-1.9,6.7,2.3c0.6,1,1.7,1.8,2.9,1.6
		c1.5-0.3,0.7-1.6,0.6-2.5c-1-9-5-17.1-7.2-25.7c-0.7-2.7-2.5-4.5-5.4-5.1c-2.3-0.2-2.1-2.5-3-3.8c1.1-3.4,2.8-3.2,5.6-1.6
		c4.9,3,6.5,7.9,8.3,12.8c0.7,2,1.5,3.4,3.9,2.4c0.9,1.1,0.8,2.5,0.7,3.8c-0.5,1.9-1.1,3.8,0.9,5.2c1.8,5.6,0.9,11.3,1.2,17
		c0.1,2.4-0.4,4.8-0.6,7.2c-0.2,0.7,0.1,1.7-1,2c-1.8-2.5-5.9-0.6-7.2-3.9c-4.6,0.3-5.1-3.8-7-6.4
		C355.7,223.8,355.8,222.5,356.9,221.4z"/>
	<path class="st5" d="M360.1,257.5c-2.3-0.3-3.3,1.6-4.6,2.9c-2.1,1.1-4.1,0.2-5.9,0.3c0.3,1.1,3.6-1.2,3.1,1.8
		c-4.8,2.2-9.1,5.5-14.6,5.8c-1.8,0.3-3.2-0.5-4.6-1.5c-0.1-2.8,2.2-1.9,3.6-2.3c2.4-0.6,4.1-1.3,3.9-4.5c-0.4-5.5,3.2-8.7,7.1-11.6
		c0.6-0.1,1.2,0,1.8,0.1c2.5,0.1,5,2.4,7.5,0c1-0.6,1.9-1.1,2.6-2.1c0.7-1.1,1.3-2.3,2.9-2c1.8,0.4,1.9,1.9,1.9,3.3
		C364.2,251.4,362.7,254.7,360.1,257.5z"/>
	<path class="st6" d="M369.1,200.2c-0.2,2.4-1.8,1.3-3.1,1.5c-2,0.2-0.9-1.1-1.2-1.9c-2-5.3-3.5-10.9-8.8-14.4
		c-2.3-1.5-3.3-0.4-4.5,1.2c0.5,3.2-0.2,5.5-4.2,5c-2.1-0.8-1.6-2.5-1.4-4c0.5-3,1.8-5.7,3.4-8.3c4.4-3.7,8.9-3.2,13.5-0.6
		C365.7,185.8,367.8,192.9,369.1,200.2z"/>
	<path class="st7" d="M372.5,260.4c-1.8-0.1-3.8,0.6-5.3-1c-0.6-3.2,1.9-3.6,4-4.2c1.9-0.5,3.9-0.2,5.8-0.3
		c7.8-0.6,15.3-2.1,21.4-7.7c1.1-1,2.2-1.8,3.8-1.8c2,1.5,0.6,2.8-0.4,3.8c-2.4,2.5-4.6,5.1-6.9,7.7c-3,2.6-6.5,3.9-10.4,4.2
		C380.5,260.3,376.5,261.4,372.5,260.4z"/>
	<path class="st8" d="M341,199.8c-3.1-6.9-5.2-14.2-8.9-20.8c1.1-1.4,2.6-1.6,4.2-1.5c2.2,0.8,2,3,2.7,5.1c-0.1-1.1,0-1.6,0.5-2.1
		c4,1.3,3.8,5.6,6,8.2c0,3.1,2.6,5.5,2.6,8.7c-0.1,0.6-0.2,1.1-0.5,1.6c-2.3,5-2.3,5-5.9,1.2C341.6,199.9,341.2,200,341,199.8z"/>
	<path class="st9" d="M320.4,139.1c7.1-7.3,16.1-9.9,26-10.4c0.9,3.1-2.9,3.1-3.3,5.4c-0.3,0.2-0.7,0.4-1.1,0.5
		c-3.3,0.3-5.7,2.1-7.6,4.7c-3.9,0-7.6,1.7-11.5,1.8C321.8,140.9,320.4,140.9,320.4,139.1z"/>
	<path class="st10" d="M396.9,229.2c2.8-3.8,5.5-7.7,5-12.9c-0.4-1.1-0.8-2.1,0.5-2.9c1.6,3.8,5.9,3.5,8.7,5.4
		c1.2,2.8,0.2,5.2-1.1,7.6c-1.9,2.2-2.6,5.1-3.9,7.6c-0.2,0.3-0.6,0.6-1,0.6c-1.8-0.5-1.7-2.4-2.6-3.5c-1.5,0.4-2.2,2.1-3.8,1.8
		C397.1,232,397.1,230.6,396.9,229.2z"/>
	<path class="st11" d="M319.5,173c-4.4-1.2-6.1-5.1-7.7-8.6c-2.6-5.6-2.6-11.6-0.7-17.5c2,0.3,1.6,2.2,2.1,3.4
		c0.7,3.7-0.8,7.6,0.7,11.2c0.5-2.3,2.2-3.7,4.2-4.9c3-0.7,5.3,0.1,6.9,2.7c0.2,1.3-0.1,2.6-0.4,3.9c-0.7,1.7-2.2,3-2.7,4.8
		C321.3,169.7,321.3,171.8,319.5,173z"/>
	<path class="st12" d="M344.7,189.3c-1.6-2.9-3.2-5.8-4.9-8.6c-0.9-0.6-0.2-0.9,0.2-1.2c0.6-0.1,1.1,0.1,1.6,0.5
		c0.1,0.1,0.1,0.7,0.5,0.2c0.4-0.4,0,0.1-0.1-0.5c-0.1-1.1,0.1-2,0.8-2.8c2-1.1,4.2-1.1,6.3-1.8c4.7-0.8,8.7-3.6,13.4-4.3
		c0.5,0.3,0.5,0.6,0.2,1.1c-2.8,2.4,0.4,4.7,0.2,7.1c-0.4,0.4-0.9,0.9-1.5,0.5c-4-2.7-7.8-1.5-11.6,0.3
		C346.8,182.1,346.5,186.1,344.7,189.3z"/>
	<path class="st13" d="M340.1,217.2c0.2,0.2,0.2,0.4,0.2,0.6c4.6,2.9,2.1,7,1.7,10.7c-1.8,0.8-3.4,1.8-4.9,3
		c-1.3,0.4-2.6,0.8-3.9,1.3c-2.4-0.6-3.8-2.2-4.6-4.5c0.7-3.5,3.8-4.6,6.5-6C337.7,221.5,337.4,217.8,340.1,217.2z"/>
	<path class="st14" d="M294.4,215.3c3.6-4.1,8-6.8,13.9-8.3c-1.6-0.3-2.6-0.4-3.5-0.6c4.4-1.9,8.7,0.3,13,0.5
		c-1.3,1-2.8,0.6-4.1,0.6c-5.7-0.1-10.4,2.4-14.8,5.6c-3.2,2.4-2.7,7,0.8,10c1.9,3.9-2.5,3.3-3.7,4.9c-0.7,1-1.3-1.2-2.1-1.9
		C289.4,222.3,292.4,218.8,294.4,215.3z"/>
	<path class="st15" d="M319.5,173c0.7-1.8,0.5-3.9,1.9-5.4c2.9-3.2,4.9-2.8,8,1.6c-2.3,5.2-2.1,5.6,3.4,6.7c1.5,0.3,3.2,0,4.4,1.3
		c0.1,0.4,0,0.8-0.3,1.1c-1.6,0.2-3.1,0.5-4.7,0.7C327.2,178.5,322.9,176.6,319.5,173z"/>
	<path class="st16" d="M394.9,256.9c0-2.7,2.2-4,3.8-5.8c1.5-1.8,4-2.9,4.1-5.7c0.4-4.2,4-6.4,5.9-9.7c1.1-0.8,0-5.7,1.5-6.2
		c0.6,0.4,2.7-9.3,3-6.9c0.2,1.2,1,7.5-1.8,13.6C407.6,244.4,404.4,253.1,394.9,256.9z"/>
	<path class="st17" d="M341,199.8c3-1.6,2,2.2,3.7,2.8c0.9-1.9,1.8-3.7,2.6-5.6c3.1,0.5,2.5,3.9,4.4,5.3c0.7,0.9,2.8,0.8,2.2,2.5
		c-0.2,0.8-1.4,0.7-2.2,0.1c-3.1,2.3-6.8,4-7.1,8.6C343.5,209,342.2,204.4,341,199.8z"/>
	<path class="st18" d="M325.6,218.8c3.2,0,5.8-0.2,2.5-4.3c-0.3-0.3-3.4-3.8,1.2-3.6c3.1,0.9,5.8,2.7,8.5,4.4c0.1,7-1.4,8-8.6,6
		C327.8,220.6,325.8,221,325.6,218.8z"/>
	<path class="st19" d="M410.4,218.8c-1.8,0.2-3.4-0.8-5.4-0.7c-3,0.2-2.1-2.7-2.3-4.5c0.1-3.3,2.1-3.5,4.6-2.8
		c1.6,0.5,3.2,1.2,4.2,2.7c1.4,5.6,3.3,11.3-0.8,16.7c-0.4-0.2-0.6-0.6-0.8-1c-0.1-3.5,1.6-6.7,1-10.2c-0.1-0.6-0.2-0.9-0.2-0.3
		C410.8,218.7,410.6,218.7,410.4,218.8z"/>
	<path class="st20" d="M377.7,236.8c1.4,0.1,2.8,0.2,4.2,0.3c0,2.5,0.2,5-1.1,7.2c-4.5,0.2-7,4.3-10.8,5.8c-0.8-0.4-1.2-1.1-1.5-2
		c-0.4-1.9,0.9-3.2,1.7-4.6C372.2,240.9,375.6,239.5,377.7,236.8z"/>
	<path class="st21" d="M333.6,266.4c1.9-0.3,3,1.2,4.5,1.9c-3,0.5-6,1-9,1.6c-4-0.6-8-0.5-11.9,0c-1.5-0.3-3-0.5-4.5-0.8
		c-0.8-0.7-2-0.9-2-2.3c0.2-0.4,0.5-0.7,1-0.9c1.4-0.5,2.8-0.3,4.2,0c4.3,0.7,8.6,0.4,12.9-0.1C330.4,265.5,332.1,265,333.6,266.4z"
		/>
	<path class="st22" d="M411.5,213.5c-2.9,0-6-5-8.8,0.1c-1,0.7-0.7,1.8-0.9,2.7c-0.3-1.4-0.7-2.8-0.7-4.2c-0.1-2.1-0.9-4.8,1.6-5.7
		c2.6-1,5,0.4,6.8,2.4C410.7,210.1,411.4,211.7,411.5,213.5z"/>
	<path class="st23" d="M312.6,150.2c-1.3-0.7-0.3-2.5-1.5-3.3c1.7-4.4,4.8-6.9,9.4-7.7c0.8,0.5,1.6,1.1,2.5,1.6
		c0.2,0,0.4,0.1,0.6,0.1c1,0.6,1.7,1.3,1.3,2.6c-0.8,0.7-2.5-0.5-2.9,1.2C318,145.2,314.6,146.6,312.6,150.2z"/>
	<path class="st24" d="M358.6,129.5c0.1-0.1,0.3-0.1,0.4-0.2c0.1-0.1,0.4-0.1,0.4-0.1c-0.2-1.1-1.7,0-1.8-1.2
		c4.9-0.6,11.4,5.1,13.3,11.6c0.5,1.1,0.2,2-0.6,2.8c-2.6,0.3-2.6-2.2-3.7-3.5c-1.2-1.3-1.6-3-2.9-4.2c-1.1-1.1-2.6-1.7-3.7-2.8
		C359.2,131.3,358.2,130.7,358.6,129.5z"/>
	<path class="st25" d="M372.4,153.8c-0.3,4.4-1.2,8.5-3.9,12.1c-1.2,0.3-1.5,2.4-3.2,1.8c-0.5-0.5-0.7-1.1-0.8-1.8
		c-0.6-3.8,3.1-6.1,3.3-9.7c0.3-1.5,0.6-3.1,2.4-3.6C371.2,152.5,371.8,153.2,372.4,153.8z"/>
	<path class="st26" d="M377.7,236.8c-0.4,4.2-4.9,4.5-7,7.1c-2.4-1.6-0.4-4.1-1.4-6c-0.1-1.1,0.1-2,1.1-2.6c0.3-0.6,0.6-1.2,0.9-1.8
		C372.9,235.6,375.8,235.3,377.7,236.8z"/>
	<path class="st27" d="M290,255.2c3.8-0.5,5.7,2.6,8.3,4.3c1.8,1.2,3.4,2.6,5.7,2.6c1.3,0,3-0.4,2.5,1.9c-1.6,1.1-3.3,1.4-5.1,0.7
		C296.7,262.5,292.9,259.4,290,255.2z"/>
	<path class="st28" d="M377.7,256c-3.7,0.6-8.2-1.5-10.5,3.4c-1.9,0.7-3.5-0.1-5.2-0.8c-1.5-3.2,0.9-4.4,2.9-5.7
		c3.9-0.3,7.6,1.2,11.5,1.6C377.1,254.5,377.7,255.1,377.7,256z"/>
	<path class="st29" d="M396.9,229.2c1,0.9,1.5,2.1,1.6,3.4c-0.8,3.4-3,5.5-6.2,6.7c-2.2-0.1-3.3-1.3-3.4-3.4
		C391.9,234.2,394.5,231.8,396.9,229.2z"/>
	<path class="st30" d="M372.4,153.8c-0.7-0.1-1.4-0.2-1.7-0.9c-1.3-1.1-0.6-3.3-2.4-4.1c-0.8-1.6-2.7-0.8-3.7-1.8
		c-0.2-0.3-0.3-0.7-0.2-1.1c1.3-2,3.8-1.9,5.4-3.4c0.3-1,0.7-1.9,1-2.9C372.9,144.2,373,149,372.4,153.8z"/>
	<path class="st31" d="M364.6,253.5c-1,1.6-3,2.7-2.6,5.1c-0.6-0.3-1.3-0.7-1.9-1c0.3-3.5,3.4-5.8,3.7-9.3c0.5-0.6,0.9-1.3,1.8-1.1
		c1.1,0.4,2.3,0.6,3.3,1.1c0.7,0.4,0.9,1,0.9,1.7C369,252.5,366,251.8,364.6,253.5z"/>
	<path class="st32" d="M342.1,228.2c-0.6-1-1.3-2.2-0.7-3.2c1.7-2.8,0.2-4.9-1-7.2c1.8-0.5,2.7,1.3,4.3,1.6c1.2,3.1,0.2,6-0.9,8.8
		C343.2,228.7,342.6,228.7,342.1,228.2z"/>
	<path class="st33" d="M381.1,243.9c-1-2.4-0.7-4.6,0.8-6.7c1.7-0.2,3.5-0.3,5.2-0.5c0.9,2-2,3.2-1.1,5.2c0,0.7-0.2,1.3-0.6,1.8
		C384.1,244.8,382.6,245.2,381.1,243.9z"/>
	<path class="st34" d="M329.1,220.5c1.1,0.2,2.2,0.5,3.3,0.7c3,0.5,5.3,0,4.2-3.9c-0.4-1.3,0-1.8,1.2-2c1,0.4,2,0.7,2.4,1.9
		c-0.9,2.3-2.1,4.4-4.1,5.9C333.2,223.6,330.2,224.7,329.1,220.5z"/>
	<path class="st35" d="M385.4,241.4c-2.6-2.7,2-2.8,1.7-4.7c0.4-0.7,1-0.7,1.6-0.7c1.3,0.8,1.6,2.9,3.6,2.7c0.5,1.4-0.1,2.4-1.2,3.2
		C389.2,242.6,387.2,242.7,385.4,241.4z"/>
	<path class="st24" d="M349.8,128.8c2.1-0.3,4.3-0.6,6.2,0.8c-0.5,2.5-3.7,4.9-7,5.3c-0.9-0.9-0.9-2-0.7-3.2
		C348.5,130.6,349,129.6,349.8,128.8z"/>
	<path class="st36" d="M349.8,128.8c0,1,0.2,1.9-0.9,2.5c-0.9,1.3-0.8,3.2-2.7,3.8c-1.3,0.1-2.4-0.2-3.3-1.2c-0.6-2.9,3.5-2.5,3.5-5
		C347.6,128.8,348.7,128.8,349.8,128.8z"/>
	<path class="st37" d="M349.1,134.6c2.3-1.7,4.5-3.3,6.8-5c0.9,0,1.7,0,2.6,0c0.6,0.5,1.1,1.1,1.7,1.6c-2.2,1.7-5,2.5-6.9,4.8
		C351.9,137.6,350.6,137,349.1,134.6z"/>
	<path class="st38" d="M410.4,228.9c0.1,0.4,0.2,0.8,0.3,1.2c0,0.8-0.1,1.6-0.1,2.4c-0.4,1.2-0.8,2.4-1.2,3.6
		c-2.1-0.7-2.2-2.5-2.3-4.3c0.1-1.1,0.5-2.1,1.4-2.9C409.1,228.6,409.8,228.6,410.4,228.9z"/>
	<path class="st39" d="M301.3,264.8c1.7-0.5,3.3-1.2,5.1-1c2.6-0.9,4,0.2,4.4,2.8c0,0.2-0.1,0.4-0.1,0.6c-1,1.1-1.7,0.1-2.5-0.3
		c-1.4-0.8-2.7-1.6-4.3-0.6C303.1,265.8,302.2,265.3,301.3,264.8z"/>
	<path class="st40" d="M304,266.3c1.1-1.8,2.5-2,4.1-0.5c0.8,0.8,1.5,1.6,2.8,1.5c0.6,0.6,1.2,1.2,1.8,1.8
		C309.7,268.1,306.9,267.2,304,266.3z"/>
	<path class="st6" d="M370.7,209.3c-3.3-0.9-3.5-2-0.9-5.2C370.7,205.7,370.8,207.5,370.7,209.3z"/>
	<path class="st41" d="M372.5,260.4c4,0.3,8.1-0.8,12,0.6C380.5,261.1,376.4,262.1,372.5,260.4z"/>
	<path class="st42" d="M317.1,269.8c4-1.2,8-1.2,11.9,0C325.1,269.8,321.1,269.8,317.1,269.8z"/>
	<path class="st43" d="M365.5,167.6c1.1-0.5,1.7-1.7,3-1.7c-1.2,2.6-3.3,4.4-5.7,5.9c0-0.4,0-0.8,0-1.2
		C363,169,363.9,168,365.5,167.6z"/>
	<path class="st44" d="M352.6,262.5c-0.6-1.6-2.4-1-3.5-2.1c2.1,0,4.2,0,6.4,0C354.8,261.5,353.8,262.1,352.6,262.5z"/>
	<path class="st45" d="M329.1,220.5c1.9,2.1,4.1,3,6.9,2.6c-2.8,1.3-5.7,2.4-7,5.5c-2.9,0.9-5.2-1.2-7.7-1.8
		c-4.2-1-8.2-1.6-11.5,2.2c-4.2,5.5-0.8,12.6,6.6,13.8c1.9,0.3,4.1-0.4,5.7,1.2c1,2.9,1.5,5.4-1.4,7.9c-2.6,2.2,1.6,2.5,2.1,4.1
		c0.2,0.9,2.1,2.3,2.3-0.5c0.1-1.2,1.2-1.1,2-1c2.4,0.3,4.2-0.6,5.7-2.4c0.8-0.9,1.9-1.5,3-0.5c1.5,1.5,2.3,0.4,2.9-0.8
		c1.4-2.6,4.3-2.7,6.5-3.8c0.9-0.4,1,0.7,1.2,1.4c-4.1,5.2-7.3,11.4-15,12.4c-1-0.4-1.9-1.4-3.2-1.1c-10.8,2.5-20.8-0.3-30.4-5.2
		c-1.8-1.1-3.2-2.5-4.3-4.3c3.4-3.7,3.2-7.6,0.8-11.7c-1.3-2.2-0.5-4.4-0.1-6.7c0.3-1.1,0.8-1.9,1.9-2.4c3.6-0.4,6.1-2.2,7.2-5.8
		c0.2-0.8,1.3-1.5,2-2.2c1.6-0.8,3.4-1.1,4.7-2.4c5.2-1.6,10.4-1.5,15.6,0C326.4,220.2,328.2,219.3,329.1,220.5z"/>
	<path class="st46" d="M354.2,189.3c3.6,0,5.8,2.3,6.4,5.4c1.4,6.7,4.8,12.6,6,19.3c0.5,2.8,0.5,5.7,1.9,8.4c0.5,1,0.4,2-0.5,2.7
		c-1.1,0.9-2.1,0.5-3.1-0.3c-0.5-0.5-1-1.2-1.7-1.3c-3.3-0.9-3.4-2,0.3-3.8c-2.8,0-4.8,0-6.8,0c-1.3,0-1.4-0.7-0.9-1.7
		c-1.4-3.4-0.9-6.9,0.5-10c1.7-4,1.1-7.4-0.7-11C354.5,194.6,353.2,192.2,354.2,189.3z"/>
	<path class="st47" d="M331.7,260.3c6.5-2.1,9.6-8.4,14.8-12.1c2.3-3.2,2.3-7.5,5.2-10.3c1.6,4.6-0.9,7.9-3.5,11.2
		c-3.2,3.6-7.6,6.5-6,12.6c0.2,0.8-0.6,2.7-2.6,3.3c-2,0.7-4.3-0.2-6,1.4c-4.7,0.4-9.4,1.3-14.2,0.9c-1.4-0.1-2.9,0.4-4.1-0.8
		c-0.3-0.9,0.3-1.5,0.9-1.6c4.8-0.3,8.7-2.9,13-4.5C330,260.1,330.8,259.9,331.7,260.3z"/>
	<path class="st48" d="M354.2,189.3c0.9,3.8,2.4,7.3,4,10.8c1,2.1,1,4.2,0,6.2c-1.8,3.7-2.3,7.7-2.3,11.7c-2.5-4-2.5-8.7-4.1-13
		c0.6-0.1,1.4,0.1,1.8-0.7c-0.8-0.7-2.3,0.1-2.9-1.1c-0.5-2.4-1.4-4.6-2.5-6.8c-0.8-1.6-2.3-3.6-0.1-5.4c3.7,0.6,1.6-3.5,3.6-4.3
		C354.5,185.6,352.9,188.9,354.2,189.3z"/>
	<path class="st49" d="M348.1,249.1c0.7-3.9,3.7-7.1,3.5-11.2c1.3-4,1.7-8.1,1.8-12.2c0-2.2,0.2-4.5,3.4-4.2c0,1.4,0,2.9,0,4.3
		c0.5,0.7,0.7,1.5,0.6,2.4c-1,6.9-1.9,13.8-5.3,20c-0.6,0.8-1.4,0.9-2.3,1C349.3,249.1,348.7,249.1,348.1,249.1z"/>
	<path class="st50" d="M342.1,228.2c0.6,0,1.1,0,1.7,0c1.9,1.5,2.6,3.9,1.6,5.7c-1.4,2.3-4.2,2.2-6.8,2.1c-0.4-0.6-0.4-1.1,0.1-1.6
		c1.1-1.4-0.5-4.5,2.9-4.6c-3.7-0.1-1.4,3.7-3.3,4.8c-1.9-0.7-2.5-1.8-1.2-3.6C338.1,229,339.7,227.9,342.1,228.2z"/>
	<path class="st51" d="M338.6,234.4c0,0.6-0.1,1.1-0.1,1.7c-1.9,1.2-3.7,2.3-5.6,3.5c0.1-0.2,0.2-0.5,0.3-0.8
		c-0.4-1.8,0.9-3.7,0.1-5.5c0-0.2,0-0.4,0-0.6c0.3-2.4,2.2-1.7,3.6-1.8C336.9,232.4,337,233.8,338.6,234.4L338.6,234.4z"/>
	<path class="st52" d="M297,230c-1.1,0-1.7,0.7-1.7,1.8c-0.7,0.7-0.7,2.9-2.2,1.6c-2.2-1.9-5.5-3.1-5.6-6.8
		c1.5-4.2,3.7-8.1,6.9-11.3c0,0.6,0.1,1.3-0.2,1.7c-1.9,3-3.1,5.7,0.7,8.3c0.5,0.3,0.5,1.5,0.9,2.4c-1-3.6,4.7-1.1,3.8-4.6
		c1.9,0.4,1.7-3.7,4.2-1.9c0.1,0.2,0.2,0.3,0.3,0.5C303.3,225.8,299.2,227.1,297,230z"/>
	<path class="st52" d="M310,218.8c-0.9,1.8-2.3,2.7-4.3,2.6c-0.5,0.5-1.1,0.5-1.7,0.1c0,0-0.2-0.2-0.2-0.2
		C305.3,219,307.9,219.5,310,218.8z"/>
	<path class="st53" d="M331.7,260.3c-5.2,2.8-10.5,5.2-16.4,6.2c-1.4,0-2.9,0-4.3,0c-1.2-1.4-2.6-2.5-4.4-2.8
		c-0.8-0.5-1.7-1.1-2.5-1.6c0.7-2.7-0.2-4.5-3-5.2c-1.5-0.4-2.4-1.3-3.1-2.6c4.3,0.1,7.8,2.8,12,3.7c4.6,1,9.5-0.3,13.9,2.3
		c0.9,0.5,1.9-0.3,2.6-1.1C328.8,256.3,330.3,258.1,331.7,260.3z"/>
	<path class="st54" d="M287.5,226.6c1.8,2,3.6,3.9,5.5,5.9c1.2,1.3,1.6-0.5,2.3-0.7c-2.4,4.1,1.3,7.2,1.9,10.8
		c0.6,3.7-0.1,6.1-3.6,7.4c-2.8-3.5-5.6-7-7.3-11.2C284.6,234.5,284.1,230.3,287.5,226.6z"/>
	<path class="st55" d="M351.6,248.3c1.2-3.7,0.6-8,4.2-10.8c0.2-0.1-0.5-1.4-0.7-2.2c-0.7-3.4,1.6-6.3,1.7-9.6
		c1.3,0.7,2.3,1.7,2.6,3.2c0.3,1.3,1,1.9,2.5,1.6c1.3-0.2,3.8-1.5,3,1.9c-0.2,0.7,0.7,1,1.2,0.6c3.3-2.8,3.5,0.2,4.3,2.2
		c-0.1,0.9-0.3,1.8-0.4,2.7c-0.5,3.6-1.3,7.1-4.6,9.4c-0.5,0.3-1.1,0.6-1.6,1c-0.3-1.1,0.6-2.9-1.2-3.2c-1.4-0.2-1.2,1.3-1.5,2.2
		c-0.7,2.3-2.6,1.8-4.3,1.9C354.9,249.9,353,250.5,351.6,248.3z"/>
	<path class="st47" d="M351.6,248.3c1.5,1.5,3.4,0.6,5.2,0.8c0.2,0.7,0.8,2-0.7,1.6c-2.1-0.5-4.4-0.2-6.3-1.6
		C350.2,248.4,350.9,248.3,351.6,248.3z"/>
	<path class="st56" d="M348.1,191c-0.7,2.6,0.5,4.6,1.6,6.8c0.8,1.6,1.6,3.4,1,5.4c-1.5-1.8-1.4-4.6-3.4-6.2
		c-0.9-2.6-1.7-5.2-2.6-7.8c0-4.1,0.6-7.9,5.2-9.5c-0.7,3.3-2.8,6.1-3.2,9.6C346.7,190.6,347.1,190.9,348.1,191z"/>
	<path class="st57" d="M407.9,231.9c0,1.6,0.5,3,1.4,4.3c-2.2,3.1-4.4,6.1-6.6,9.2c-5.9,5.6-12.8,9.1-20.8,10.2
		c-1.4,0.2-2.8,0.2-4.3,0.4c-4.3-0.8-8.7-1.7-13-2.5c0.9-2.4,3.1-2.9,5.2-3.5c3.4-2.7,5.9-7,11.3-6.1c1.5,0.1,3,0,4.3-0.9
		c0.4-0.2,1.1-0.2,1.1,0.1c1.1,4.1,3.5,3.4,6.2,1.8c4.8-2.8,8.2-7.3,12.6-10.6l0,0C406.3,233.6,405.6,231.2,407.9,231.9z"/>
	<path class="st58" d="M336.8,178.3c0-0.3,0-0.7-0.1-1c-1.1-1.9-0.7-3.5,0.9-4.9c1.3-0.6,2.5-0.6,3.7,0.2c1.3,2.6,0.4,4.9-1,7.1
		c-0.2,0.3-0.4,0.6-0.5,0.9c-0.6,1,0.6,2.2-0.6,3.3C337.7,182.3,337.6,180.1,336.8,178.3z"/>
	<path class="st59" d="M342.9,133.8c1.3-0.1,2.4,0.3,3.5,0.9c1.8,1.6,1.9,3.8,2,6c0,1.6,0.1,3.3-0.1,4.9c-0.3,1.8-1.3,3.3-3.1,2.7
		c-3.8-1.4-6.3,0.2-8.6,2.9c-0.5,0.6-1.3,0.7-2,0.7c-3.3-1.3-5.1-4.2-7.2-6.8c-1-1.9-2.7-3.2-4.5-4.3c0,0-0.1,0-0.1,0
		c3.8-0.8,7.3-3.1,11.4-1.7c3.5-0.3,5.4-3.2,7.8-5.2C342.4,133.8,342.7,133.8,342.9,133.8z"/>
	<path class="st36" d="M342.1,133.8c-1.4,3.5-3.1,6.6-7.8,5.2C335.5,135.1,338.4,134,342.1,133.8z"/>
	<path class="st60" d="M405.3,234.3c-3,4.9-7.3,8.4-12.1,11.3c-2.2-0.8-2.2-0.8-1.7-4.3c0.3-0.9,0.6-1.7,0.9-2.6
		c2.6-1.4,4-4.1,6.1-6.1c1.7-0.9,2.8-2.4,4-4C404.3,230.2,403.2,233.1,405.3,234.3z"/>
	<path class="st61" d="M410.4,228.9c-0.5,0.1-1,0.2-1.6,0.3c-0.8-0.9-0.6-1.7-0.1-2.6c1.1-2.5,2.2-5,1.6-7.8
		c0.1-0.5,0.3-1.1,0.4-1.6C411,221.1,412.3,225.1,410.4,228.9z"/>
	<path class="st60" d="M408.8,226.6c0,0.9,0,1.8,0.1,2.6c-0.3,0.9-0.6,1.8-0.9,2.7c-1.4,0.2-1.4,2-2.6,2.4
		C405.8,231.4,406.7,228.7,408.8,226.6z"/>
	<path class="st62" d="M328.2,144.2c1.5,2.8,4.3,4.5,6.1,7c6.5,4,11,1.7,13.2-3.2c0.3-0.7,0.4-1.4-0.1-2c0-1.7,0-3.5,0-5.2
		c3.1-0.2,3.6,2.5,5,4.3c0.6,0.8,1.1,1.5,1.8,2.3c1.3,1.5,3,2.5,4.9,3.2c1.1,0.5,2.4,0.5,3.4,1.3c1.4,1.7,1.2,3.5,0.2,5.2
		c-2.2,3.9-4.3,7.8-8.4,10.1c-3.8,1.1-6.8,3.8-11.2,3.9c-7.7,0.2-14.1-1.9-19.1-7.7c0.1-1.2-0.4-2.6,0.8-3.5c1.9,0.1,3.5,0,2-2.5
		c-0.9-2.1-3.6-3.2-3.2-6c0.1-0.8,2.5-0.4,1-2c-1.1-1.1-2.6-1.8-3-3.4c-0.1-0.6,0.1-1.2,0.6-1.7c0.3-2.1,1.8-0.5,2.6-0.9
		C326.1,142.7,327,144.1,328.2,144.2z"/>
	<path class="st63" d="M322.1,144.2c0,0.6,0,1.1,0.1,1.7c-1.2,1.4-3.1-0.2-4.2,1c3.7-0.6,5,0.6,4.5,4.3c-1.8,1.6-5.2,0.5-6.1,3.5
		c0,1.2,1.2,1.6,1.6,2.6c-1.1,2.1-4.1,3-3.4,6.8c-3.3-5-2.4-9.5-1.9-13.9C313.8,145.1,315.3,144.1,322.1,144.2z"/>
	<path class="st64" d="M323.9,163.3c4.4,1.4,7.2,5.6,12.2,6.1c5.5,0.5,10.8,1.6,15.2-2.8c1-0.9,1.8-0.4,2.8,0c0.4-0.4,0.8-0.4,1.1,0
		c-2.9,4.1-6.7,6.4-11.9,5.5c-1.8-0.2-3.7-0.4-5.5-0.3c-3.2,0.1-6.3-0.1-8.7-2.7c-2.4-1.5-4.4-4.7-7.8-1.7
		C321.3,165.6,322.5,164.4,323.9,163.3z"/>
	<path class="st65" d="M317.9,157.3c-2,0.1-3-0.8-2.6-2.9c6.2-3.5,7.2-3.3,11.9,2.8c1.2,0.1,2,0.6,1.6,1.9c-0.3,1.1-1.2,1.9-2.3,2.4
		c-1.6,0.6-1.1-1.2-1.8-1.6C322.9,157.8,320.7,156.8,317.9,157.3z"/>
	<path class="st66" d="M319.6,158.8c1.1,0.1,2.4,0.2,2.3,1.5c-0.2,2.2-2.1,3.1-3.9,3.4c-1.2,0.2-1.7-1.2-1.5-2.1
		C316.8,159.9,317.9,158.9,319.6,158.8z"/>
	<path class="st67" d="M344.1,171.4c4.3-0.1,7.7-2.4,11-4.6c1.8-2.6,4.6-4.3,6.4-6.9c2.1-1.9,4-4.4,7.4-3.5c0.1,3.6-4.1,5.7-3.5,9.5
		c-4.2,3.3-8.3,6.6-13.5,8.2c-1.1,0.3-1.4,1.4-2,2.1c-2.3,0.5-4.6,0.9-6.8,1.4C341.4,175.2,341.6,173.1,344.1,171.4z"/>
	<path class="st68" d="M349.9,176.1c0.1-1.2-0.5-2.8,1.3-3.2c4.5-1.1,8.3-3.4,11.6-6.6c0.9-0.8,1.6-1.1,2.7-0.5c0,0.6,0,1.2,0,1.8
		c-0.9,1-1.8,2-2.7,3C358.9,173.5,354.4,174.7,349.9,176.1z"/>
	<path class="st69" d="M344.1,171.4c-0.9,1.9-1.4,3.9-1,6.1c-0.1,1-0.2,2.1-0.2,3.1c-2.2-0.6-1.4-2.5-1.5-3.9
		c-0.1-1.2,0.9-2.5-0.1-3.7c-1.1-0.1-2.3-0.2-3.4-0.2c-0.5-0.4-0.5-0.9-0.2-1.4C339.8,171.4,341.9,171.4,344.1,171.4z"/>
	<path class="st70" d="M341.2,173c2.1,2.2-0.3,5.4,1.6,7.6c0,0.5,0.1,1,0.1,1.5c-0.3-0.2-0.7-0.3-1-0.5c-0.6-0.6-1.1-1.3-1.6-1.9
		C339.9,177.4,341.1,175.3,341.2,173z"/>
	<path class="st71" d="M331.7,237.6c-4.2-2.8-8.4-5.4-13.1-7.4c-3.1-1.3-6.3-1.8-9.6-2c2.9-4.3,7.1-3.7,11.2-2.8
		c3,0.6,5.9,2.1,8.8,3.2c1.4,1.4,2.9,2.8,4.3,4.2c0,0-0.1,0.1-0.1,0.1C334.7,235,333.5,236.4,331.7,237.6z"/>
	<path class="st72" d="M337.7,171.4c0.1,0.5,0.1,0.9,0.2,1.4c-0.9,1.4-0.9,2.9-1.1,4.5c-2.7-0.3-5.3-0.7-8-1
		c-1.2-0.2-2.5-1.8-2.4-1.9c2.4-0.9-1.1-5.1,2.8-5C332,170,334.8,170.7,337.7,171.4z"/>
	<path class="st73" d="M365.4,247.3c1.5-3.1,3.1-6.2,4.6-9.4c1.9,1.8-0.5,4.1,0.7,6c-0.6,1.4-1.2,2.9-1.8,4.3
		C367.4,249.2,366.2,249,365.4,247.3z"/>
	<path class="st74" d="M328.2,144.2c-1.5,1.3-2.3-0.5-3.4-0.9c-0.6-0.9-1.2-1.7-1.7-2.6C325.3,141,327.1,142.1,328.2,144.2z"/>
	<path class="st75" d="M351.7,145.9c-1.4-1.8-2.1-4.2-4.4-5.2c-0.3-2-0.6-4-0.9-6.1c0.8-1.2,0.9-2.8,2.5-3.4
		c0.1,1.1,0.1,2.2,0.2,3.3c1.5,1.4,2.9,2.4,4.4-0.2c1.4-2.5,3.9-3.2,6.7-3.2c1,1.4,3.4,1.4,3.7,3.4c-0.1,0.2-0.3,0.3-0.4,0.5
		c-1.2,0.7-2.5,0-3.7,0.1c-2.8,0.1-5.3,0.8-6,4.1c-0.2,1-0.5,1.9-0.8,2.9C352.6,143.3,352.8,144.9,351.7,145.9z"/>
	<path class="st76" d="M369.8,142.5c-0.2,3.4-3.9,2-5.3,3.8c-1.6-2.2-0.8-4.8-1.3-7.2c0.2-1.4-0.4-3,0.4-4.4
		c0.1-0.1,0.3-0.1,0.4-0.2C367.2,136.3,367.6,140,369.8,142.5z"/>
	<path class="st77" d="M369,156.4c-2.8,0.7-5,2.2-6.9,4.3c-0.7-3.6,1.3-6.4,2.6-9.4c0.8-1,1.6-2,2.8-2.6c0.2,0,0.4-0.1,0.6-0.1
		c4.6-0.8,1.9,2.8,2.6,4.4C369.1,153.6,368.9,154.9,369,156.4z"/>
	<path class="st78" d="M363.8,138.1c1.4,2.6,0.9,5.4,0.7,8.2c-0.1,0.1-0.1,0.3-0.1,0.5c-0.2,0.3-0.4,0.6-0.7,0.8
		c-0.7,0.3-1.4,0.6-2-0.2c-0.2-0.3-0.3-0.7-0.4-1c-0.1-1.4-0.4-2.8-1.9-3.6c-0.3-0.3-0.5-0.5-0.7-0.8c-2.2-2.4-3.6,0.6-5.4,0.7
		c-0.7-0.1-1.1-0.4-0.8-1.2c0.2-0.9,0.5-1.7,0.7-2.6c0.9-3.1,3.2-4.2,6.1-4.2C361.4,134.8,363.5,135.3,363.8,138.1z"/>
	<path class="st79" d="M364.1,146.8c0,0,0.3,0,0.3,0c0.9,1.3,4.2-2.5,3.7,1.8c0,0,0,0,0,0c-0.5,0.3-0.9,0.6-1.3,1
		c-0.9,0.6-1.7,1.8-2.8,0.8C362.6,149.2,362.8,147.9,364.1,146.8z"/>
	<path class="st80" d="M391.5,241.3c2,0.9-0.9,3.7,1.7,4.3c-0.8,1.1-2,1.7-3.3,1.7c-2.4,0.1-5.4,0.8-3.5-3.5c0-0.1-0.6-0.5-0.9-0.8
		c0-0.5,0-1.1,0-1.6C387.5,241.3,389.5,241.3,391.5,241.3z"/>
	<path class="st81" d="M304,221.4c0.6,0,1.1,0,1.7-0.1c-1.9,3.9-3.6,8-8.7,8.6c0.1-1-0.1-2.2,1.1-2.6
		C301,226.3,302.4,223.7,304,221.4z"/>
	<path class="st82" d="M331.7,237.6c0-1.7,2.1-2.8,1.5-4.8c2.9,2,1.2,4,0,6C332.8,238.4,332.3,238,331.7,237.6z"/>
	<path class="st83" d="M338.6,234.4c0-2.5-0.7-5.5,3.6-4.9C339.3,229.8,340,232.9,338.6,234.4C338.6,234.4,338.6,234.4,338.6,234.4z
		"/>
	<path class="st84" d="M347.3,146c2.5,3.8-0.6,5.6-2.8,7.3c-3.1,2.3-7.3,1.2-10.2-2.1c0.5-0.2,1.4-0.1,1.6-0.5
		c2.4-4,5.4-5.6,9.9-3.2C346.7,148,347.2,146.9,347.3,146z"/>
	<path class="st85" d="M343,165c-3,1.5-4.9,0.3-5.9-2.5c-0.9-2.8,0.5-4.7,3.2-5.6c3.3-1.1,4.6,1,5.4,3.7
		C347.4,163.7,344.5,163.9,343,165z"/>
	<path class="st86" d="M353.3,142.5c1.8-2,3.5-4.7,6.1-0.9c-0.1,0.1-0.2,0.2-0.2,0.4c-0.7,1.3-3.5,1.6-2.3,3.5c1,1.5,1.8,0,1.9-1.2
		c0.1-0.7,0.1-1.4,0.8-1.9c3.5,0.2,2.6,2.5,2.3,4.6c0,2.2-0.5,4.1-3.2,4.3c-2.2-0.5-4.3-1.3-5.4-3.6
		C352.7,145.9,352,144.2,353.3,142.5z"/>
	<path class="st87" d="M365.5,151.1c-1.1,3.2-2.3,6.4-3.4,9.6c-2.1,2.3-4.1,4.6-7,6.1c-0.3,0-0.7,0-1-0.1c2.1-2.8,4.7-5.3,6.6-8.3
		c1.3-2.1,1.8-4,1.4-6.4c0.4-0.7,1-1.1,1.8-1.3C364.5,150.8,365,150.7,365.5,151.1z"/>
	<path class="st88" d="M343,165c0.7-1.6,3.2-2.1,2.7-4.4c0.4-0.2,0.8-0.4,1.1-0.7c1.3-1.2,3.3-2.8,4.4-1.4c1.4,1.8-0.3,3.7-2.1,4.8
		C347.1,164.4,345.2,165.4,343,165z"/>
	<path class="st89" d="M322.5,151.3c-0.9-4.2-2.4-4.6-7.2-1.6c0.7-4.6,4-3.7,6.8-3.8c0.8,0.7,1.8,1.3,2.5,2.1c0.8,0.9,2.5,1.6,2,2.8
		c-0.6,1.6-2.2-0.1-3.3,0.3C323.1,151.4,322.8,151.4,322.5,151.3z"/>
	<path class="st90" d="M322.5,151.3c0.3,0,0.6-0.1,0.9-0.1c1.1,2.1,3.9,3.1,3.9,6c-3.3-4.1-7.2-5.3-11.9-2.8
		C316.2,151.8,317.8,151.2,322.5,151.3z"/>
	<path class="st91" d="M363.8,151.2c-0.5,0.3-1.1,0.5-1.6,0.8c-1.2-0.2-2.5,0.4-3.5-0.8c1.5-1.1,2.4-2.7,3.2-4.3
		c0.1,0.2,0.2,0.5,0.1,0.7C363.2,148.5,362.7,150.3,363.8,151.2z"/>
	<path class="st92" d="M353.3,142.5c0,1.7,0,3.5,0,5.2c-0.5-0.6-1-1.2-1.6-1.8c0-1.5-0.5-3.1,0.7-4.3
		C352.7,141.9,353,142.2,353.3,142.5z"/>
	<path class="st93" d="M363.8,138.1c-3.8-4-6.6-3.8-10.7,0.9c0.4-3.4,3.4-5.6,7.1-5c1.1,0.2,2.2,0.5,3.3,0.8
		C363.4,135.9,365.4,136.9,363.8,138.1z"/>
	<path class="st94" d="M363.8,151.2c-2.2-0.4-1.6-2.2-1.8-3.6c0.7-0.3,1.4-0.6,2.1-0.8c-1.4,7,2.8,0.9,4,1.7c-0.5,1.2-1.5,2-2.6,2.6
		C364.9,151.2,364.3,151.2,363.8,151.2z"/>
	<path class="st95" d="M359.6,142.3c0.2,1,0.5,1.9,0.6,2.9c0.1,1.2-0.5,1.9-1.7,2c-0.9,0.1-1.9,0.8-2.8-0.3c-0.8-1-0.8-2.1-0.3-3.2
		c0.8-1.8,2.6-1.4,4-2C359.5,141.8,359.6,142.1,359.6,142.3z"/>
</g>
<g>
	<path class="st96" d="M119.5,245.2c-3.4,1.6-10.8,3.5-20.3,3.5c-24.8,0-39.8-15.5-39.8-39.4c0-25.7,17.9-41.2,41.8-41.2
		c9.4,0,16,2,18.9,3.5l-3,11.3c-3.7-1.6-8.9-3-15.3-3c-15.9,0-27.3,10-27.3,28.7c0,17.3,10,28.1,27.2,28.1c5.7,0,11.7-1.2,15.5-2.8
		L119.5,245.2z"/>
	<path class="st96" d="M145.8,169.4v45.5c0,15.3,6.4,22.3,16,22.3c10.3,0,16.4-7.1,16.4-22.3v-45.5h14.2V214
		c0,24.1-12.4,34.7-31.1,34.7c-18.1,0-29.8-10.1-29.8-34.6v-44.7H145.8z"/>
	<path class="st96" d="M223.7,181.3h-22.2v-11.9h58.9v11.9h-22.5v66.1h-14.2V181.3z"/>
</g>
<g>
	<path class="st96" d="M104.4,339.8c0-6.5-0.2-11.9-0.5-16.8h12.2l0.7,8.3h0.3c2.7-4.4,7.8-9.6,17.4-9.6c7.4,0,13.2,4.2,15.6,10.4
		h0.2c2-3.1,4.3-5.4,6.8-7.1c3.2-2.2,6.8-3.4,11.6-3.4c9.3,0,18.8,6.4,18.8,24.4v33.2h-13.9v-31.2c0-9.4-3.2-14.9-10.1-14.9
		c-4.9,0-8.5,3.5-10,7.5c-0.5,1.3-0.7,3.1-0.7,4.7v33.8H139v-32.7c0-7.9-3.1-13.4-9.7-13.4c-5.3,0-8.9,4.2-10.3,8
		c-0.5,1.5-0.7,3.1-0.7,4.7v33.4h-13.9V339.8z"/>
	<path class="st96" d="M246.4,365.8c0,5.1,0.2,10.1,0.9,13.5h-12.9l-1-6.3H233c-3.4,4.4-9.3,7.5-16.7,7.5
		c-11.3,0-17.7-8.2-17.7-16.8c0-14.1,12.6-21.4,33.5-21.3v-0.9c0-3.7-1.5-9.8-11.5-9.8c-5.6,0-11.3,1.7-15.2,4.2l-2.8-9.3
		c4.2-2.5,11.5-5,20.4-5c18.1,0,23.3,11.5,23.3,23.9V365.8z M232.5,351.8c-10.1-0.1-19.7,2-19.7,10.5c0,5.6,3.6,8.1,8.1,8.1
		c5.8,0,9.8-3.7,11.2-7.8c0.3-1,0.3-2.1,0.3-3.1V351.8z"/>
	<path class="st96" d="M275.7,347.8h0.2c1.4-2.2,3-4.6,4.4-6.6l13.8-18.2h17.1l-21,23l23.9,33.4h-17.5l-16.2-24.9l-4.7,5.7v19.2
		h-14.2v-82.2h14.2V347.8z"/>
	<path class="st96" d="M329.6,355.2c0.3,10.2,8.2,14.6,17.4,14.6c6.6,0,11.2-1,15.6-2.5l2.1,9.7c-4.9,2.1-11.6,3.6-19.7,3.6
		c-18.3,0-29.1-11.2-29.1-28.5c0-15.6,9.5-30.3,27.6-30.3c18.3,0,24.3,15.1,24.3,27.4c0,2.7-0.2,4.7-0.5,6H329.6z M354.4,345.2
		c0.1-5.2-2.2-13.8-11.7-13.8c-8.8,0-12.5,8-13.1,13.8H354.4z"/>
</g>
</svg>
